<svg width="354" height="88" viewBox="0 0 354 88" fill="none" xmlns="http://www.w3.org/2000/svg">
<g filter="url(#filter0_d)">
<rect x="12" y="6" width="330" height="64" rx="4" fill="#34B487"/>
<path d="M76.6387 30.2637C78.4551 30.2637 79.8646 30.7422 80.8672 31.6992C81.8698 32.6562 82.4264 33.7435 82.5371 34.9609H80.6426C80.4277 34.0365 79.998 33.304 79.3535 32.7637C78.7155 32.2233 77.8171 31.9531 76.6582 31.9531C75.2454 31.9531 74.1029 32.4512 73.2305 33.4473C72.3646 34.4368 71.9316 35.957 71.9316 38.0078C71.9316 39.6875 72.3223 41.0514 73.1035 42.0996C73.8913 43.1413 75.0632 43.6621 76.6191 43.6621C78.0514 43.6621 79.1419 43.112 79.8906 42.0117C80.2878 41.4323 80.584 40.6706 80.7793 39.7266H82.6738C82.5046 41.237 81.9447 42.5033 80.9941 43.5254C79.8548 44.7559 78.3184 45.3711 76.3848 45.3711C74.7181 45.3711 73.3184 44.8665 72.1855 43.8574C70.6947 42.5228 69.9492 40.4622 69.9492 37.6758C69.9492 35.5599 70.5091 33.8249 71.6289 32.4707C72.8398 30.9993 74.5098 30.2637 76.6387 30.2637ZM88.9629 43.8672C90.1283 43.8672 90.9258 43.4277 91.3555 42.5488C91.7917 41.6634 92.0098 40.6803 92.0098 39.5996C92.0098 38.623 91.8535 37.8288 91.541 37.2168C91.0462 36.2533 90.1934 35.7715 88.9824 35.7715C87.9082 35.7715 87.127 36.1816 86.6387 37.002C86.1504 37.8223 85.9062 38.8118 85.9062 39.9707C85.9062 41.084 86.1504 42.0117 86.6387 42.7539C87.127 43.4961 87.9017 43.8672 88.9629 43.8672ZM89.0312 34.2383C90.3789 34.2383 91.5182 34.6875 92.4492 35.5859C93.3802 36.4844 93.8457 37.806 93.8457 39.5508C93.8457 41.237 93.4355 42.6302 92.6152 43.7305C91.7949 44.8307 90.5221 45.3809 88.7969 45.3809C87.3581 45.3809 86.2155 44.8958 85.3691 43.9258C84.5228 42.9492 84.0996 41.6406 84.0996 40C84.0996 38.2422 84.5456 36.8424 85.4375 35.8008C86.3294 34.7591 87.5273 34.2383 89.0312 34.2383ZM95.9453 34.541H97.6836V36.0254C98.1003 35.5111 98.4779 35.1367 98.8164 34.9023C99.3958 34.5052 100.053 34.3066 100.789 34.3066C101.622 34.3066 102.293 34.5117 102.801 34.9219C103.087 35.1562 103.348 35.5013 103.582 35.957C103.973 35.3971 104.432 34.9837 104.959 34.7168C105.486 34.4434 106.079 34.3066 106.736 34.3066C108.143 34.3066 109.1 34.8145 109.607 35.8301C109.881 36.377 110.018 37.1126 110.018 38.0371V45H108.191V37.7344C108.191 37.0378 108.016 36.5592 107.664 36.2988C107.319 36.0384 106.896 35.9082 106.395 35.9082C105.704 35.9082 105.109 36.1393 104.607 36.6016C104.113 37.0638 103.865 37.8353 103.865 38.916V45H102.078V38.1738C102.078 37.4642 101.993 36.9466 101.824 36.6211C101.557 36.1328 101.059 35.8887 100.33 35.8887C99.666 35.8887 99.0605 36.1458 98.5137 36.6602C97.9733 37.1745 97.7031 38.1055 97.7031 39.4531V45H95.9453V34.541ZM117.02 43.8184C117.84 43.8184 118.52 43.4766 119.061 42.793C119.607 42.1029 119.881 41.0742 119.881 39.707C119.881 38.8737 119.76 38.1576 119.52 37.5586C119.064 36.4062 118.23 35.8301 117.02 35.8301C115.802 35.8301 114.969 36.4388 114.52 37.6562C114.279 38.3073 114.158 39.1341 114.158 40.1367C114.158 40.944 114.279 41.6309 114.52 42.1973C114.975 43.278 115.809 43.8184 117.02 43.8184ZM112.469 34.5898H114.178V35.9766C114.529 35.5013 114.913 35.1335 115.33 34.873C115.923 34.4824 116.619 34.2871 117.42 34.2871C118.605 34.2871 119.611 34.7428 120.438 35.6543C121.264 36.5592 121.678 37.8548 121.678 39.541C121.678 41.8197 121.082 43.4473 119.891 44.4238C119.135 45.0423 118.257 45.3516 117.254 45.3516C116.466 45.3516 115.805 45.179 115.271 44.834C114.959 44.6387 114.611 44.3034 114.227 43.8281V49.1699H112.469V34.5898ZM123.787 30.6543H125.545V45H123.787V30.6543ZM132.547 34.3066C133.289 34.3066 134.008 34.4824 134.705 34.834C135.402 35.179 135.932 35.6283 136.297 36.1816C136.648 36.709 136.883 37.3242 137 38.0273C137.104 38.5091 137.156 39.2773 137.156 40.332H129.49C129.523 41.3932 129.773 42.2461 130.242 42.8906C130.711 43.5286 131.437 43.8477 132.42 43.8477C133.338 43.8477 134.07 43.5449 134.617 42.9395C134.93 42.5879 135.151 42.181 135.281 41.7188H137.01C136.964 42.1029 136.811 42.5326 136.551 43.0078C136.297 43.4766 136.01 43.8607 135.691 44.1602C135.158 44.681 134.497 45.0326 133.709 45.2148C133.286 45.319 132.807 45.3711 132.273 45.3711C130.971 45.3711 129.868 44.8991 128.963 43.9551C128.058 43.0046 127.605 41.6764 127.605 39.9707C127.605 38.291 128.061 36.9271 128.973 35.8789C129.884 34.8307 131.076 34.3066 132.547 34.3066ZM135.35 38.9355C135.278 38.1738 135.112 37.5651 134.852 37.1094C134.37 36.263 133.566 35.8398 132.439 35.8398C131.632 35.8398 130.955 36.1328 130.408 36.7188C129.861 37.2982 129.572 38.0371 129.539 38.9355H135.35ZM139.676 31.6211H141.453V34.541H143.123V35.9766H141.453V42.8027C141.453 43.1673 141.577 43.4115 141.824 43.5352C141.961 43.6068 142.189 43.6426 142.508 43.6426C142.592 43.6426 142.684 43.6426 142.781 43.6426C142.879 43.6361 142.993 43.6263 143.123 43.6133V45C142.921 45.0586 142.71 45.1009 142.488 45.127C142.273 45.153 142.039 45.166 141.785 45.166C140.965 45.166 140.408 44.9577 140.115 44.541C139.822 44.1178 139.676 43.571 139.676 42.9004V35.9766H138.26V34.541H139.676V31.6211ZM149.246 34.3066C149.988 34.3066 150.708 34.4824 151.404 34.834C152.101 35.179 152.632 35.6283 152.996 36.1816C153.348 36.709 153.582 37.3242 153.699 38.0273C153.803 38.5091 153.855 39.2773 153.855 40.332H146.189C146.222 41.3932 146.473 42.2461 146.941 42.8906C147.41 43.5286 148.136 43.8477 149.119 43.8477C150.037 43.8477 150.77 43.5449 151.316 42.9395C151.629 42.5879 151.85 42.181 151.98 41.7188H153.709C153.663 42.1029 153.51 42.5326 153.25 43.0078C152.996 43.4766 152.71 43.8607 152.391 44.1602C151.857 44.681 151.196 45.0326 150.408 45.2148C149.985 45.319 149.507 45.3711 148.973 45.3711C147.671 45.3711 146.567 44.8991 145.662 43.9551C144.757 43.0046 144.305 41.6764 144.305 39.9707C144.305 38.291 144.76 36.9271 145.672 35.8789C146.583 34.8307 147.775 34.3066 149.246 34.3066ZM152.049 38.9355C151.977 38.1738 151.811 37.5651 151.551 37.1094C151.069 36.263 150.265 35.8398 149.139 35.8398C148.331 35.8398 147.654 36.1328 147.107 36.7188C146.561 37.2982 146.271 38.0371 146.238 38.9355H152.049ZM174.949 44.9609L173.973 46.1426L171.756 44.4531C171.222 44.7461 170.643 44.9805 170.018 45.1562C169.399 45.332 168.722 45.4199 167.986 45.4199C165.76 45.4199 164.015 44.6908 162.752 43.2324C161.639 41.8132 161.082 40.0358 161.082 37.9004C161.082 35.9603 161.564 34.3001 162.527 32.9199C163.764 31.1491 165.594 30.2637 168.016 30.2637C170.548 30.2637 172.423 31.0775 173.641 32.7051C174.591 33.9746 175.066 35.599 175.066 37.5781C175.066 38.5026 174.952 39.3913 174.725 40.2441C174.38 41.5462 173.797 42.6074 172.977 43.4277L174.949 44.9609ZM168.221 43.6816C168.624 43.6816 169.002 43.6556 169.354 43.6035C169.705 43.5449 170.011 43.4342 170.271 43.2715L168.699 42.041L169.676 40.8398L171.551 42.2949C172.143 41.6178 172.544 40.8594 172.752 40.0195C172.967 39.1797 173.074 38.3757 173.074 37.6074C173.074 35.9212 172.632 34.5638 171.746 33.5352C170.867 32.5065 169.663 31.9922 168.133 31.9922C166.583 31.9922 165.356 32.487 164.451 33.4766C163.546 34.4596 163.094 35.9766 163.094 38.0273C163.094 39.7526 163.527 41.1263 164.393 42.1484C165.265 43.1706 166.541 43.6816 168.221 43.6816ZM178.914 34.541V41.4844C178.914 42.0182 178.999 42.4544 179.168 42.793C179.48 43.418 180.063 43.7305 180.916 43.7305C182.14 43.7305 182.973 43.1836 183.416 42.0898C183.657 41.5039 183.777 40.6999 183.777 39.6777V34.541H185.535V45H183.875L183.895 43.457C183.667 43.8542 183.383 44.1895 183.045 44.4629C182.374 45.0098 181.561 45.2832 180.604 45.2832C179.113 45.2832 178.097 44.7852 177.557 43.7891C177.264 43.2552 177.117 42.5423 177.117 41.6504V34.541H178.914ZM192.645 34.3066C193.387 34.3066 194.106 34.4824 194.803 34.834C195.499 35.179 196.03 35.6283 196.395 36.1816C196.746 36.709 196.98 37.3242 197.098 38.0273C197.202 38.5091 197.254 39.2773 197.254 40.332H189.588C189.62 41.3932 189.871 42.2461 190.34 42.8906C190.809 43.5286 191.535 43.8477 192.518 43.8477C193.436 43.8477 194.168 43.5449 194.715 42.9395C195.027 42.5879 195.249 42.181 195.379 41.7188H197.107C197.062 42.1029 196.909 42.5326 196.648 43.0078C196.395 43.4766 196.108 43.8607 195.789 44.1602C195.255 44.681 194.594 45.0326 193.807 45.2148C193.383 45.319 192.905 45.3711 192.371 45.3711C191.069 45.3711 189.965 44.8991 189.061 43.9551C188.156 43.0046 187.703 41.6764 187.703 39.9707C187.703 38.291 188.159 36.9271 189.07 35.8789C189.982 34.8307 191.173 34.3066 192.645 34.3066ZM195.447 38.9355C195.376 38.1738 195.21 37.5651 194.949 37.1094C194.467 36.263 193.663 35.8398 192.537 35.8398C191.73 35.8398 191.053 36.1328 190.506 36.7188C189.959 37.2982 189.669 38.0371 189.637 38.9355H195.447ZM200.467 41.7188C200.519 42.3047 200.665 42.7539 200.906 43.0664C201.349 43.6328 202.117 43.916 203.211 43.916C203.862 43.916 204.435 43.776 204.93 43.4961C205.424 43.2096 205.672 42.7702 205.672 42.1777C205.672 41.7285 205.473 41.3867 205.076 41.1523C204.822 41.0091 204.321 40.8431 203.572 40.6543L202.176 40.3027C201.284 40.0814 200.626 39.834 200.203 39.5605C199.448 39.0853 199.07 38.4277 199.07 37.5879C199.07 36.5983 199.425 35.7975 200.135 35.1855C200.851 34.5736 201.811 34.2676 203.016 34.2676C204.591 34.2676 205.727 34.7298 206.424 35.6543C206.86 36.2402 207.072 36.8717 207.059 37.5488H205.398C205.366 37.1517 205.226 36.7904 204.979 36.4648C204.575 36.0026 203.875 35.7715 202.879 35.7715C202.215 35.7715 201.71 35.8984 201.365 36.1523C201.027 36.4062 200.857 36.7415 200.857 37.1582C200.857 37.6139 201.082 37.9785 201.531 38.252C201.792 38.4147 202.176 38.5579 202.684 38.6816L203.846 38.9648C205.109 39.2708 205.955 39.5671 206.385 39.8535C207.068 40.3027 207.41 41.0091 207.41 41.9727C207.41 42.9036 207.055 43.7077 206.346 44.3848C205.643 45.0618 204.568 45.4004 203.123 45.4004C201.567 45.4004 200.464 45.0488 199.812 44.3457C199.168 43.6361 198.823 42.7604 198.777 41.7188H200.467ZM209.773 31.6211H211.551V34.541H213.221V35.9766H211.551V42.8027C211.551 43.1673 211.674 43.4115 211.922 43.5352C212.059 43.6068 212.286 43.6426 212.605 43.6426C212.69 43.6426 212.781 43.6426 212.879 43.6426C212.977 43.6361 213.09 43.6263 213.221 43.6133V45C213.019 45.0586 212.807 45.1009 212.586 45.127C212.371 45.153 212.137 45.166 211.883 45.166C211.062 45.166 210.506 44.9577 210.213 44.541C209.92 44.1178 209.773 43.571 209.773 42.9004V35.9766H208.357V34.541H209.773V31.6211ZM214.988 34.5898H216.775V45H214.988V34.5898ZM214.988 30.6543H216.775V32.6465H214.988V30.6543ZM223.592 43.8672C224.757 43.8672 225.555 43.4277 225.984 42.5488C226.421 41.6634 226.639 40.6803 226.639 39.5996C226.639 38.623 226.482 37.8288 226.17 37.2168C225.675 36.2533 224.822 35.7715 223.611 35.7715C222.537 35.7715 221.756 36.1816 221.268 37.002C220.779 37.8223 220.535 38.8118 220.535 39.9707C220.535 41.084 220.779 42.0117 221.268 42.7539C221.756 43.4961 222.531 43.8672 223.592 43.8672ZM223.66 34.2383C225.008 34.2383 226.147 34.6875 227.078 35.5859C228.009 36.4844 228.475 37.806 228.475 39.5508C228.475 41.237 228.064 42.6302 227.244 43.7305C226.424 44.8307 225.151 45.3809 223.426 45.3809C221.987 45.3809 220.844 44.8958 219.998 43.9258C219.152 42.9492 218.729 41.6406 218.729 40C218.729 38.2422 219.174 36.8424 220.066 35.8008C220.958 34.7591 222.156 34.2383 223.66 34.2383ZM230.574 34.541H232.244V36.0254C232.739 35.4134 233.263 34.974 233.816 34.707C234.37 34.4401 234.985 34.3066 235.662 34.3066C237.146 34.3066 238.149 34.8242 238.67 35.8594C238.956 36.4258 239.1 37.2363 239.1 38.291V45H237.312V38.4082C237.312 37.7702 237.218 37.2559 237.029 36.8652C236.717 36.2142 236.15 35.8887 235.33 35.8887C234.913 35.8887 234.572 35.931 234.305 36.0156C233.823 36.1589 233.4 36.4453 233.035 36.875C232.742 37.2201 232.55 37.5781 232.459 37.9492C232.374 38.3138 232.332 38.8379 232.332 39.5215V45H230.574V34.541ZM241.707 34.541H243.377V36.0254C243.872 35.4134 244.396 34.974 244.949 34.707C245.503 34.4401 246.118 34.3066 246.795 34.3066C248.279 34.3066 249.282 34.8242 249.803 35.8594C250.089 36.4258 250.232 37.2363 250.232 38.291V45H248.445V38.4082C248.445 37.7702 248.351 37.2559 248.162 36.8652C247.85 36.2142 247.283 35.8887 246.463 35.8887C246.046 35.8887 245.704 35.931 245.438 36.0156C244.956 36.1589 244.533 36.4453 244.168 36.875C243.875 37.2201 243.683 37.5781 243.592 37.9492C243.507 38.3138 243.465 38.8379 243.465 39.5215V45H241.707V34.541ZM254.188 42.2168C254.188 42.7246 254.373 43.125 254.744 43.418C255.115 43.7109 255.555 43.8574 256.062 43.8574C256.681 43.8574 257.28 43.7142 257.859 43.4277C258.836 42.9525 259.324 42.1745 259.324 41.0938V39.6777C259.109 39.8145 258.833 39.9284 258.494 40.0195C258.156 40.1107 257.824 40.1758 257.498 40.2148L256.434 40.3516C255.796 40.4362 255.317 40.5697 254.998 40.752C254.458 41.0579 254.188 41.5462 254.188 42.2168ZM258.445 38.6621C258.849 38.61 259.119 38.4408 259.256 38.1543C259.334 37.998 259.373 37.7734 259.373 37.4805C259.373 36.8815 259.158 36.4486 258.729 36.1816C258.305 35.9082 257.697 35.7715 256.902 35.7715C255.984 35.7715 255.333 36.0189 254.949 36.5137C254.734 36.7871 254.594 37.194 254.529 37.7344H252.889C252.921 36.4453 253.338 35.5501 254.139 35.0488C254.946 34.541 255.88 34.2871 256.941 34.2871C258.172 34.2871 259.171 34.5215 259.939 34.9902C260.701 35.459 261.082 36.1882 261.082 37.1777V43.2031C261.082 43.3854 261.118 43.5319 261.189 43.6426C261.268 43.7533 261.427 43.8086 261.668 43.8086C261.746 43.8086 261.834 43.8053 261.932 43.7988C262.029 43.7858 262.133 43.7695 262.244 43.75V45.0488C261.971 45.127 261.762 45.1758 261.619 45.1953C261.476 45.2148 261.281 45.2246 261.033 45.2246C260.428 45.2246 259.988 45.0098 259.715 44.5801C259.572 44.3522 259.471 44.0299 259.412 43.6133C259.054 44.082 258.54 44.4889 257.869 44.834C257.199 45.179 256.46 45.3516 255.652 45.3516C254.682 45.3516 253.888 45.0586 253.27 44.4727C252.658 43.8802 252.352 43.1413 252.352 42.2559C252.352 41.2858 252.654 40.5339 253.26 40C253.865 39.4661 254.66 39.1374 255.643 39.0137L258.445 38.6621ZM263.973 34.5898H265.76V45H263.973V34.5898ZM263.973 30.6543H265.76V32.6465H263.973V30.6543ZM268.475 34.541H270.145V36.3477C270.281 35.9961 270.617 35.5697 271.15 35.0684C271.684 34.5605 272.299 34.3066 272.996 34.3066C273.029 34.3066 273.084 34.3099 273.162 34.3164C273.24 34.3229 273.374 34.3359 273.562 34.3555V36.2109C273.458 36.1914 273.361 36.1784 273.27 36.1719C273.185 36.1654 273.09 36.1621 272.986 36.1621C272.101 36.1621 271.421 36.4486 270.945 37.0215C270.47 37.5879 270.232 38.2422 270.232 38.9844V45H268.475V34.541ZM279.441 34.3066C280.184 34.3066 280.903 34.4824 281.6 34.834C282.296 35.179 282.827 35.6283 283.191 36.1816C283.543 36.709 283.777 37.3242 283.895 38.0273C283.999 38.5091 284.051 39.2773 284.051 40.332H276.385C276.417 41.3932 276.668 42.2461 277.137 42.8906C277.605 43.5286 278.331 43.8477 279.314 43.8477C280.232 43.8477 280.965 43.5449 281.512 42.9395C281.824 42.5879 282.046 42.181 282.176 41.7188H283.904C283.859 42.1029 283.706 42.5326 283.445 43.0078C283.191 43.4766 282.905 43.8607 282.586 44.1602C282.052 44.681 281.391 45.0326 280.604 45.2148C280.18 45.319 279.702 45.3711 279.168 45.3711C277.866 45.3711 276.762 44.8991 275.857 43.9551C274.952 43.0046 274.5 41.6764 274.5 39.9707C274.5 38.291 274.956 36.9271 275.867 35.8789C276.779 34.8307 277.97 34.3066 279.441 34.3066ZM282.244 38.9355C282.173 38.1738 282.007 37.5651 281.746 37.1094C281.264 36.263 280.46 35.8398 279.334 35.8398C278.527 35.8398 277.85 36.1328 277.303 36.7188C276.756 37.2982 276.466 38.0371 276.434 38.9355H282.244Z" fill="#222831"/>
</g>
<defs>
<filter id="filter0_d" x="0" y="0" width="354" height="88" filterUnits="userSpaceOnUse" color-interpolation-filters="sRGB">
<feFlood flood-opacity="0" result="BackgroundImageFix"/>
<feColorMatrix in="SourceAlpha" type="matrix" values="0 0 0 0 0 0 0 0 0 0 0 0 0 0 0 0 0 0 127 0"/>
<feOffset dy="6"/>
<feGaussianBlur stdDeviation="6"/>
<feColorMatrix type="matrix" values="0 0 0 0 0.0137557 0 0 0 0 0.00494792 0 0 0 0 0.0208333 0 0 0 0.16 0"/>
<feBlend mode="normal" in2="BackgroundImageFix" result="effect1_dropShadow"/>
<feBlend mode="normal" in="SourceGraphic" in2="effect1_dropShadow" result="shape"/>
</filter>
</defs>
</svg>
