<svg width="109" height="70" viewBox="0 0 109 70" fill="none" xmlns="http://www.w3.org/2000/svg">
<g filter="url(#filter0_d)">
<path fill-rule="evenodd" clip-rule="evenodd" d="M38.618 24.7787V21H27.5618V24.7787C26.8711 24.8141 26.2203 25.1132 25.7437 25.6143C25.267 26.1154 25.0008 26.7803 25 27.4719V33.9438H27.2921V32.8652H26.0787V27.4719C26.0791 27.0429 26.2498 26.6317 26.5531 26.3284C26.8564 26.025 27.2677 25.8544 27.6966 25.8539H38.4831C38.9121 25.8544 39.3234 26.025 39.6267 26.3284C39.93 26.6317 40.1006 27.0429 40.1011 27.4719V32.8652H38.618V33.9438H41.1798V27.4719C41.179 26.7803 40.9128 26.1154 40.4361 25.6143C39.9595 25.1132 39.3087 24.8141 38.618 24.7787ZM37.5393 24.7753H28.6404V22.0787H37.5393V24.7753ZM37.6291 27.0225H38.7078V28.1011H37.6291V27.0225ZM26.8427 29.1798H28.191H38.7078V30.2584H37.3595V37H28.191V30.2584H26.8427V29.1798ZM29.2696 35.9214H36.2809V30.2584H29.2696V35.9214Z" fill="#222831" fill-opacity="0.8"/>
<path d="M52.293 23.958H56.8115C57.7048 23.958 58.4248 24.2109 58.9717 24.7168C59.5186 25.2181 59.792 25.9245 59.792 26.8359C59.792 27.6198 59.5482 28.3034 59.0605 28.8867C58.5729 29.4655 57.8232 29.7549 56.8115 29.7549H53.6533V34H52.293V23.958ZM58.418 26.8428C58.418 26.1045 58.1445 25.6032 57.5977 25.3389C57.2969 25.1976 56.8844 25.127 56.3604 25.127H53.6533V28.6064H56.3604C56.971 28.6064 57.4655 28.4766 57.8438 28.2168C58.2266 27.957 58.418 27.499 58.418 26.8428ZM61.3711 26.6787H62.54V27.9434C62.6357 27.6973 62.8704 27.3988 63.2441 27.0479C63.6178 26.6924 64.0485 26.5146 64.5361 26.5146C64.5589 26.5146 64.5977 26.5169 64.6523 26.5215C64.707 26.526 64.8005 26.5352 64.9326 26.5488V27.8477C64.8597 27.834 64.7913 27.8249 64.7275 27.8203C64.6683 27.8158 64.6022 27.8135 64.5293 27.8135C63.9095 27.8135 63.4333 28.014 63.1006 28.415C62.7679 28.8115 62.6016 29.2695 62.6016 29.7891V34H61.3711V26.6787ZM65.999 26.7129H67.25V34H65.999V26.7129ZM65.999 23.958H67.25V25.3525H65.999V23.958ZM69.1162 26.6787H70.2852V27.7178C70.6315 27.2894 70.9984 26.9818 71.3857 26.7949C71.7731 26.6081 72.2038 26.5146 72.6777 26.5146C73.7168 26.5146 74.4186 26.877 74.7832 27.6016C74.9837 27.998 75.084 28.5654 75.084 29.3037V34H73.833V29.3857C73.833 28.9391 73.7669 28.5791 73.6348 28.3057C73.416 27.8499 73.0195 27.6221 72.4453 27.6221C72.1536 27.6221 71.9144 27.6517 71.7275 27.7109C71.3903 27.8112 71.0941 28.0117 70.8389 28.3125C70.6338 28.554 70.4993 28.8047 70.4355 29.0645C70.3763 29.3197 70.3467 29.6865 70.3467 30.165V34H69.1162V26.6787ZM77.1553 24.6348H78.3994V26.6787H79.5684V27.6836H78.3994V32.4619C78.3994 32.7171 78.486 32.888 78.6592 32.9746C78.7549 33.0247 78.9144 33.0498 79.1377 33.0498C79.1969 33.0498 79.2607 33.0498 79.3291 33.0498C79.3975 33.0452 79.4772 33.0384 79.5684 33.0293V34C79.4271 34.041 79.279 34.0706 79.124 34.0889C78.9736 34.1071 78.8096 34.1162 78.6318 34.1162C78.0576 34.1162 77.668 33.9704 77.4629 33.6787C77.2578 33.3825 77.1553 32.9997 77.1553 32.5303V27.6836H76.1641V26.6787H77.1553V24.6348Z" fill="#222831"/>
<path d="M17 7.5H92V6.5H17V7.5ZM95.5 11V47H96.5V11H95.5ZM92 50.5H17V51.5H92V50.5ZM13.5 47V11H12.5V47H13.5ZM17 50.5C15.067 50.5 13.5 48.933 13.5 47H12.5C12.5 49.4853 14.5147 51.5 17 51.5V50.5ZM95.5 47C95.5 48.933 93.933 50.5 92 50.5V51.5C94.4853 51.5 96.5 49.4853 96.5 47H95.5ZM92 7.5C93.933 7.5 95.5 9.067 95.5 11H96.5C96.5 8.51472 94.4853 6.5 92 6.5V7.5ZM17 6.5C14.5147 6.5 12.5 8.51472 12.5 11H13.5C13.5 9.067 15.067 7.5 17 7.5V6.5Z" fill="#222831" fill-opacity="0.8"/>
</g>
<defs>
<filter id="filter0_d" x="0.5" y="0.5" width="108" height="69" filterUnits="userSpaceOnUse" color-interpolation-filters="sRGB">
<feFlood flood-opacity="0" result="BackgroundImageFix"/>
<feColorMatrix in="SourceAlpha" type="matrix" values="0 0 0 0 0 0 0 0 0 0 0 0 0 0 0 0 0 0 127 0"/>
<feOffset dy="6"/>
<feGaussianBlur stdDeviation="6"/>
<feColorMatrix type="matrix" values="0 0 0 0 0.0137557 0 0 0 0 0.00494792 0 0 0 0 0.0208333 0 0 0 0.16 0"/>
<feBlend mode="normal" in2="BackgroundImageFix" result="effect1_dropShadow"/>
<feBlend mode="normal" in="SourceGraphic" in2="effect1_dropShadow" result="shape"/>
</filter>
</defs>
</svg>
