<svg width="187" height="68" viewBox="0 0 187 68" fill="none" xmlns="http://www.w3.org/2000/svg">
<g filter="url(#filter0_d)">
<path d="M12 10C12 7.79086 13.7909 6 16 6H171C173.209 6 175 7.79086 175 10V46C175 48.2091 173.209 50 171 50H16C13.7909 50 12 48.2091 12 46V10Z" fill="#34B487"/>
<path fill-rule="evenodd" clip-rule="evenodd" d="M35.8182 20.9091H37.7273C38.0648 20.9091 38.3885 21.0432 38.6272 21.2819C38.8659 21.5205 39 21.8443 39 22.1818V35.5455C39 35.883 38.8659 36.2067 38.6272 36.4454C38.3885 36.6841 38.0648 36.8182 37.7273 36.8182H26.2727C25.9352 36.8182 25.6115 36.6841 25.3728 36.4454C25.1341 36.2067 25 35.883 25 35.5455V22.1818C25 21.8443 25.1341 21.5205 25.3728 21.2819C25.6115 21.0432 25.9352 20.9091 26.2727 20.9091H28.1818V20.2727C28.1818 19.9352 28.3159 19.6115 28.5546 19.3728C28.7933 19.1341 29.117 19 29.4545 19H34.5455C34.883 19 35.2067 19.1341 35.4454 19.3728C35.6841 19.6115 35.8182 19.9352 35.8182 20.2727V20.9091ZM34.5455 20.2727H29.4545V22.8182H34.5455V20.2727ZM26.2727 35.5455H37.7273V22.1818H35.8182V24.0909H28.1818V22.1818H26.2727V35.5455ZM35.8182 26H28.1818V27.2727H35.8182V26ZM33.2727 29.1818H28.1818V30.4545H33.2727V29.1818ZM28.1818 32.3636H31.3636V33.6364H28.1818V32.3636Z" fill="#222831" fill-opacity="0.8"/>
<path d="M55.2881 31.8379C55.7484 31.8379 56.1266 31.79 56.4229 31.6943C56.9515 31.5166 57.3844 31.1748 57.7217 30.6689C57.9906 30.2633 58.1842 29.7438 58.3027 29.1104C58.3711 28.7321 58.4053 28.3812 58.4053 28.0576C58.4053 26.8135 58.1569 25.8473 57.6602 25.1592C57.168 24.471 56.3727 24.127 55.2744 24.127H52.8613V31.8379H55.2881ZM51.4941 22.958H55.5615C56.9424 22.958 58.0133 23.4479 58.7744 24.4277C59.4535 25.3118 59.793 26.4443 59.793 27.8252C59.793 28.8916 59.5924 29.8555 59.1914 30.7168C58.485 32.2389 57.2705 33 55.5479 33H51.4941V22.958ZM64.291 32.207C65.1068 32.207 65.665 31.8994 65.9658 31.2842C66.2712 30.6644 66.4238 29.9762 66.4238 29.2197C66.4238 28.5361 66.3145 27.9801 66.0957 27.5518C65.7493 26.8773 65.1523 26.54 64.3047 26.54C63.5527 26.54 63.0059 26.8271 62.6641 27.4014C62.3223 27.9756 62.1514 28.6683 62.1514 29.4795C62.1514 30.2588 62.3223 30.9082 62.6641 31.4277C63.0059 31.9473 63.5482 32.207 64.291 32.207ZM64.3389 25.4668C65.2822 25.4668 66.0798 25.7812 66.7314 26.4102C67.3831 27.0391 67.709 27.9642 67.709 29.1855C67.709 30.3659 67.4219 31.3411 66.8477 32.1113C66.2734 32.8815 65.3825 33.2666 64.1748 33.2666C63.1676 33.2666 62.3678 32.9271 61.7754 32.248C61.1829 31.5645 60.8867 30.6484 60.8867 29.5C60.8867 28.2695 61.1989 27.2897 61.8232 26.5605C62.4476 25.8314 63.2861 25.4668 64.3389 25.4668ZM69.7461 25.6787L71.1543 31.4482L72.583 25.6787H73.9639L75.3994 31.4141L76.8965 25.6787H78.127L76.001 33H74.7227L73.2324 27.333L71.79 33H70.5117L68.3994 25.6787H69.7461ZM79.2959 25.6787H80.4648V26.7178C80.8112 26.2894 81.1781 25.9818 81.5654 25.7949C81.9528 25.6081 82.3835 25.5146 82.8574 25.5146C83.8965 25.5146 84.5983 25.877 84.9629 26.6016C85.1634 26.998 85.2637 27.5654 85.2637 28.3037V33H84.0127V28.3857C84.0127 27.9391 83.9466 27.5791 83.8145 27.3057C83.5957 26.8499 83.1992 26.6221 82.625 26.6221C82.3333 26.6221 82.0941 26.6517 81.9072 26.7109C81.57 26.8112 81.2738 27.0117 81.0186 27.3125C80.8135 27.554 80.679 27.8047 80.6152 28.0645C80.556 28.3197 80.5264 28.6865 80.5264 29.165V33H79.2959V25.6787ZM87.123 22.958H88.3535V33H87.123V22.958ZM93.1113 32.207C93.9271 32.207 94.4854 31.8994 94.7861 31.2842C95.0915 30.6644 95.2441 29.9762 95.2441 29.2197C95.2441 28.5361 95.1348 27.9801 94.916 27.5518C94.5697 26.8773 93.9727 26.54 93.125 26.54C92.373 26.54 91.8262 26.8271 91.4844 27.4014C91.1426 27.9756 90.9717 28.6683 90.9717 29.4795C90.9717 30.2588 91.1426 30.9082 91.4844 31.4277C91.8262 31.9473 92.3685 32.207 93.1113 32.207ZM93.1592 25.4668C94.1025 25.4668 94.9001 25.7812 95.5518 26.4102C96.2035 27.0391 96.5293 27.9642 96.5293 29.1855C96.5293 30.3659 96.2422 31.3411 95.668 32.1113C95.0938 32.8815 94.2028 33.2666 92.9951 33.2666C91.988 33.2666 91.1882 32.9271 90.5957 32.248C90.0033 31.5645 89.707 30.6484 89.707 29.5C89.707 28.2695 90.0192 27.2897 90.6436 26.5605C91.2679 25.8314 92.1064 25.4668 93.1592 25.4668ZM98.9424 31.0518C98.9424 31.4072 99.0723 31.6875 99.332 31.8926C99.5918 32.0977 99.8994 32.2002 100.255 32.2002C100.688 32.2002 101.107 32.0999 101.513 31.8994C102.196 31.5667 102.538 31.0221 102.538 30.2656V29.2744C102.388 29.3701 102.194 29.4499 101.957 29.5137C101.72 29.5775 101.488 29.623 101.26 29.6504L100.515 29.7461C100.068 29.8053 99.7331 29.8988 99.5098 30.0264C99.1315 30.2406 98.9424 30.5824 98.9424 31.0518ZM101.923 28.5635C102.205 28.527 102.395 28.4085 102.49 28.208C102.545 28.0986 102.572 27.9414 102.572 27.7363C102.572 27.3171 102.422 27.014 102.121 26.8271C101.825 26.6357 101.399 26.54 100.843 26.54C100.2 26.54 99.7445 26.7132 99.4756 27.0596C99.3252 27.251 99.2272 27.5358 99.1816 27.9141H98.0332C98.056 27.0117 98.3477 26.3851 98.9082 26.0342C99.4733 25.6787 100.127 25.501 100.87 25.501C101.731 25.501 102.431 25.665 102.969 25.9932C103.502 26.3213 103.769 26.8317 103.769 27.5244V31.7422C103.769 31.8698 103.794 31.9723 103.844 32.0498C103.898 32.1273 104.01 32.166 104.179 32.166C104.233 32.166 104.295 32.1637 104.363 32.1592C104.432 32.1501 104.505 32.1387 104.582 32.125V33.0342C104.391 33.0889 104.245 33.123 104.145 33.1367C104.044 33.1504 103.908 33.1572 103.734 33.1572C103.311 33.1572 103.003 33.0068 102.812 32.7061C102.711 32.5465 102.641 32.321 102.6 32.0293C102.349 32.3574 101.989 32.6423 101.52 32.8838C101.05 33.1253 100.533 33.2461 99.9678 33.2461C99.2887 33.2461 98.7327 33.041 98.2998 32.6309C97.8714 32.2161 97.6572 31.6989 97.6572 31.0791C97.6572 30.4001 97.8691 29.8737 98.293 29.5C98.7168 29.1263 99.2728 28.8962 99.9609 28.8096L101.923 28.5635ZM106.571 29.4248C106.571 30.2087 106.738 30.8649 107.07 31.3936C107.403 31.9222 107.936 32.1865 108.67 32.1865C109.24 32.1865 109.707 31.9427 110.071 31.4551C110.44 30.9629 110.625 30.2588 110.625 29.3428C110.625 28.4176 110.436 27.734 110.058 27.292C109.679 26.8454 109.212 26.6221 108.656 26.6221C108.036 26.6221 107.533 26.859 107.146 27.333C106.763 27.807 106.571 28.5042 106.571 29.4248ZM108.424 25.5488C108.984 25.5488 109.454 25.6673 109.832 25.9043C110.051 26.041 110.299 26.2803 110.577 26.6221V22.9238H111.76V33H110.652V31.9814C110.365 32.4326 110.026 32.7585 109.634 32.959C109.242 33.1595 108.793 33.2598 108.287 33.2598C107.471 33.2598 106.765 32.918 106.168 32.2344C105.571 31.5462 105.272 30.6325 105.272 29.4932C105.272 28.4268 105.544 27.5039 106.086 26.7246C106.633 25.9408 107.412 25.5488 108.424 25.5488ZM122.314 27.5586C122.952 27.5586 123.456 27.431 123.825 27.1758C124.199 26.9206 124.386 26.4603 124.386 25.7949C124.386 25.0794 124.126 24.5918 123.606 24.332C123.328 24.1953 122.957 24.127 122.492 24.127H119.17V27.5586H122.314ZM117.81 22.958H122.458C123.224 22.958 123.855 23.0697 124.352 23.293C125.295 23.7214 125.767 24.512 125.767 25.665C125.767 26.2666 125.641 26.7588 125.391 27.1416C125.145 27.5244 124.798 27.832 124.352 28.0645C124.743 28.224 125.037 28.4336 125.233 28.6934C125.434 28.9531 125.546 29.3747 125.568 29.958L125.616 31.3047C125.63 31.6875 125.662 31.9723 125.712 32.1592C125.794 32.4782 125.94 32.6833 126.149 32.7744V33H124.481C124.436 32.9134 124.399 32.8018 124.372 32.665C124.345 32.5283 124.322 32.264 124.304 31.8721L124.222 30.1973C124.19 29.541 123.946 29.1012 123.49 28.8779C123.23 28.7549 122.823 28.6934 122.267 28.6934H119.17V33H117.81V22.958ZM130.647 25.5146C131.167 25.5146 131.671 25.6377 132.158 25.8838C132.646 26.1253 133.017 26.4398 133.272 26.8271C133.519 27.1963 133.683 27.627 133.765 28.1191C133.838 28.4564 133.874 28.9941 133.874 29.7324H128.508C128.531 30.4753 128.706 31.0723 129.034 31.5234C129.362 31.9701 129.87 32.1934 130.559 32.1934C131.201 32.1934 131.714 31.9814 132.097 31.5576C132.315 31.3115 132.47 31.0267 132.562 30.7031H133.771C133.74 30.972 133.632 31.2728 133.45 31.6055C133.272 31.9336 133.072 32.2025 132.849 32.4121C132.475 32.7767 132.012 33.0228 131.461 33.1504C131.165 33.2233 130.83 33.2598 130.456 33.2598C129.545 33.2598 128.772 32.9294 128.139 32.2686C127.505 31.6032 127.188 30.6735 127.188 29.4795C127.188 28.3037 127.507 27.349 128.146 26.6152C128.784 25.8815 129.618 25.5146 130.647 25.5146ZM132.609 28.7549C132.559 28.2217 132.443 27.7956 132.261 27.4766C131.924 26.8841 131.361 26.5879 130.572 26.5879C130.007 26.5879 129.533 26.793 129.15 27.2031C128.768 27.6087 128.565 28.126 128.542 28.7549H132.609ZM138.481 32.1729C139.056 32.1729 139.532 31.9336 139.91 31.4551C140.293 30.972 140.484 30.252 140.484 29.2949C140.484 28.7116 140.4 28.2103 140.231 27.791C139.912 26.9844 139.329 26.5811 138.481 26.5811C137.629 26.5811 137.046 27.0072 136.731 27.8594C136.563 28.3151 136.479 28.8939 136.479 29.5957C136.479 30.1608 136.563 30.6416 136.731 31.0381C137.05 31.7946 137.634 32.1729 138.481 32.1729ZM135.296 25.7129H136.492V26.6836C136.738 26.3509 137.007 26.0934 137.299 25.9111C137.714 25.6377 138.201 25.501 138.762 25.501C139.591 25.501 140.295 25.82 140.874 26.458C141.453 27.0915 141.742 27.9984 141.742 29.1787C141.742 30.7738 141.325 31.9131 140.491 32.5967C139.963 33.0296 139.347 33.2461 138.646 33.2461C138.094 33.2461 137.632 33.1253 137.258 32.8838C137.039 32.7471 136.795 32.5124 136.526 32.1797V35.9189H135.296V25.7129ZM146.09 32.207C146.906 32.207 147.464 31.8994 147.765 31.2842C148.07 30.6644 148.223 29.9762 148.223 29.2197C148.223 28.5361 148.113 27.9801 147.895 27.5518C147.548 26.8773 146.951 26.54 146.104 26.54C145.352 26.54 144.805 26.8271 144.463 27.4014C144.121 27.9756 143.95 28.6683 143.95 29.4795C143.95 30.2588 144.121 30.9082 144.463 31.4277C144.805 31.9473 145.347 32.207 146.09 32.207ZM146.138 25.4668C147.081 25.4668 147.879 25.7812 148.53 26.4102C149.182 27.0391 149.508 27.9642 149.508 29.1855C149.508 30.3659 149.221 31.3411 148.646 32.1113C148.072 32.8815 147.181 33.2666 145.974 33.2666C144.966 33.2666 144.167 32.9271 143.574 32.248C142.982 31.5645 142.686 30.6484 142.686 29.5C142.686 28.2695 142.998 27.2897 143.622 26.5605C144.246 25.8314 145.085 25.4668 146.138 25.4668ZM151.012 25.6787H152.181V26.9434C152.276 26.6973 152.511 26.3988 152.885 26.0479C153.258 25.6924 153.689 25.5146 154.177 25.5146C154.2 25.5146 154.238 25.5169 154.293 25.5215C154.348 25.526 154.441 25.5352 154.573 25.5488V26.8477C154.5 26.834 154.432 26.8249 154.368 26.8203C154.309 26.8158 154.243 26.8135 154.17 26.8135C153.55 26.8135 153.074 27.014 152.741 27.415C152.409 27.8115 152.242 28.2695 152.242 28.7891V33H151.012V25.6787ZM155.886 23.6348H157.13V25.6787H158.299V26.6836H157.13V31.4619C157.13 31.7171 157.216 31.888 157.39 31.9746C157.485 32.0247 157.645 32.0498 157.868 32.0498C157.927 32.0498 157.991 32.0498 158.06 32.0498C158.128 32.0452 158.208 32.0384 158.299 32.0293V33C158.158 33.041 158.009 33.0706 157.854 33.0889C157.704 33.1071 157.54 33.1162 157.362 33.1162C156.788 33.1162 156.398 32.9704 156.193 32.6787C155.988 32.3825 155.886 31.9997 155.886 31.5303V26.6836H154.895V25.6787H155.886V23.6348Z" fill="#222831"/>
</g>
<defs>
<filter id="filter0_d" x="0" y="0" width="187" height="68" filterUnits="userSpaceOnUse" color-interpolation-filters="sRGB">
<feFlood flood-opacity="0" result="BackgroundImageFix"/>
<feColorMatrix in="SourceAlpha" type="matrix" values="0 0 0 0 0 0 0 0 0 0 0 0 0 0 0 0 0 0 127 0"/>
<feOffset dy="6"/>
<feGaussianBlur stdDeviation="6"/>
<feColorMatrix type="matrix" values="0 0 0 0 0.0137557 0 0 0 0 0.00494792 0 0 0 0 0.0208333 0 0 0 0.16 0"/>
<feBlend mode="normal" in2="BackgroundImageFix" result="effect1_dropShadow"/>
<feBlend mode="normal" in="SourceGraphic" in2="effect1_dropShadow" result="shape"/>
</filter>
</defs>
</svg>
