<svg width="116" height="70" viewBox="0 0 116 70" fill="none" xmlns="http://www.w3.org/2000/svg">
<g filter="url(#filter0_d)">
<path d="M40 23H26C25.7348 23 25.4804 23.1054 25.2929 23.2929C25.1054 23.4804 25 23.7348 25 24V34C25 34.2652 25.1054 34.5196 25.2929 34.7071C25.4804 34.8946 25.7348 35 26 35H40C40.2652 35 40.5196 34.8946 40.7071 34.7071C40.8946 34.5196 41 34.2652 41 34V24C41 23.7348 40.8946 23.4804 40.7071 23.2929C40.5196 23.1054 40.2652 23 40 23ZM39.23 34H26.83L30.33 30.38L29.61 29.685L26 33.42V24.76L32.215 30.945C32.4024 31.1312 32.6558 31.2358 32.92 31.2358C33.1842 31.2358 33.4376 31.1312 33.625 30.945L40 24.605V33.355L36.32 29.675L35.615 30.38L39.23 34ZM26.655 24H39.19L32.92 30.235L26.655 24Z" fill="#222831" fill-opacity="0.8"/>
<path d="M52.6826 23.958H60.0039V25.1885H54.0088V28.2373H59.5527V29.3994H54.0088V32.8037H60.1064V34H52.6826V23.958ZM61.7266 26.6787H62.9434V27.7178C63.235 27.3577 63.4993 27.0957 63.7363 26.9316C64.1419 26.6536 64.6022 26.5146 65.1172 26.5146C65.7005 26.5146 66.1699 26.6582 66.5254 26.9453C66.7259 27.1094 66.9082 27.3509 67.0723 27.6699C67.3457 27.278 67.667 26.9886 68.0361 26.8018C68.4053 26.6104 68.82 26.5146 69.2803 26.5146C70.2646 26.5146 70.9346 26.8701 71.29 27.5811C71.4814 27.9639 71.5771 28.4788 71.5771 29.126V34H70.2988V28.9141C70.2988 28.4264 70.1758 28.0915 69.9297 27.9092C69.6882 27.7269 69.3919 27.6357 69.041 27.6357C68.5579 27.6357 68.141 27.7975 67.79 28.1211C67.4437 28.4447 67.2705 28.9847 67.2705 29.7412V34H66.0195V29.2217C66.0195 28.7249 65.9603 28.3626 65.8418 28.1348C65.6549 27.793 65.3063 27.6221 64.7959 27.6221C64.3311 27.6221 63.9072 27.8021 63.5244 28.1621C63.1462 28.5221 62.957 29.1738 62.957 30.1172V34H61.7266V26.6787ZM74.332 32.0518C74.332 32.4072 74.4619 32.6875 74.7217 32.8926C74.9814 33.0977 75.2891 33.2002 75.6445 33.2002C76.0775 33.2002 76.4967 33.0999 76.9023 32.8994C77.5859 32.5667 77.9277 32.0221 77.9277 31.2656V30.2744C77.7773 30.3701 77.5837 30.4499 77.3467 30.5137C77.1097 30.5775 76.8773 30.623 76.6494 30.6504L75.9043 30.7461C75.4577 30.8053 75.1227 30.8988 74.8994 31.0264C74.5212 31.2406 74.332 31.5824 74.332 32.0518ZM77.3125 29.5635C77.5951 29.527 77.7842 29.4085 77.8799 29.208C77.9346 29.0986 77.9619 28.9414 77.9619 28.7363C77.9619 28.3171 77.8115 28.014 77.5107 27.8271C77.2145 27.6357 76.7884 27.54 76.2324 27.54C75.5898 27.54 75.1341 27.7132 74.8652 28.0596C74.7148 28.251 74.6169 28.5358 74.5713 28.9141H73.4229C73.4456 28.0117 73.7373 27.3851 74.2979 27.0342C74.863 26.6787 75.5169 26.501 76.2598 26.501C77.1211 26.501 77.8206 26.665 78.3584 26.9932C78.8916 27.3213 79.1582 27.8317 79.1582 28.5244V32.7422C79.1582 32.8698 79.1833 32.9723 79.2334 33.0498C79.2881 33.1273 79.3997 33.166 79.5684 33.166C79.623 33.166 79.6846 33.1637 79.7529 33.1592C79.8213 33.1501 79.8942 33.1387 79.9717 33.125V34.0342C79.7803 34.0889 79.6344 34.123 79.5342 34.1367C79.4339 34.1504 79.2972 34.1572 79.124 34.1572C78.7002 34.1572 78.3926 34.0068 78.2012 33.7061C78.1009 33.5465 78.0303 33.321 77.9893 33.0293C77.7386 33.3574 77.3786 33.6423 76.9092 33.8838C76.4398 34.1253 75.9225 34.2461 75.3574 34.2461C74.6784 34.2461 74.1224 34.041 73.6895 33.6309C73.2611 33.2161 73.0469 32.6989 73.0469 32.0791C73.0469 31.4001 73.2588 30.8737 73.6826 30.5C74.1064 30.1263 74.6624 29.8962 75.3506 29.8096L77.3125 29.5635ZM81.1816 26.7129H82.4326V34H81.1816V26.7129ZM81.1816 23.958H82.4326V25.3525H81.1816V23.958ZM84.333 23.958H85.5635V34H84.333V23.958Z" fill="#222831"/>
<path d="M17 7.5H99V6.5H17V7.5ZM102.5 11V47H103.5V11H102.5ZM99 50.5H17V51.5H99V50.5ZM13.5 47V11H12.5V47H13.5ZM17 50.5C15.067 50.5 13.5 48.933 13.5 47H12.5C12.5 49.4853 14.5147 51.5 17 51.5V50.5ZM102.5 47C102.5 48.933 100.933 50.5 99 50.5V51.5C101.485 51.5 103.5 49.4853 103.5 47H102.5ZM99 7.5C100.933 7.5 102.5 9.067 102.5 11H103.5C103.5 8.51472 101.485 6.5 99 6.5V7.5ZM17 6.5C14.5147 6.5 12.5 8.51472 12.5 11H13.5C13.5 9.067 15.067 7.5 17 7.5V6.5Z" fill="#222831" fill-opacity="0.8"/>
</g>
<defs>
<filter id="filter0_d" x="0.5" y="0.5" width="115" height="69" filterUnits="userSpaceOnUse" color-interpolation-filters="sRGB">
<feFlood flood-opacity="0" result="BackgroundImageFix"/>
<feColorMatrix in="SourceAlpha" type="matrix" values="0 0 0 0 0 0 0 0 0 0 0 0 0 0 0 0 0 0 127 0"/>
<feOffset dy="6"/>
<feGaussianBlur stdDeviation="6"/>
<feColorMatrix type="matrix" values="0 0 0 0 0.0137557 0 0 0 0 0.00494792 0 0 0 0 0.0208333 0 0 0 0.16 0"/>
<feBlend mode="normal" in2="BackgroundImageFix" result="effect1_dropShadow"/>
<feBlend mode="normal" in="SourceGraphic" in2="effect1_dropShadow" result="shape"/>
</filter>
</defs>
</svg>
