<svg width="60" height="29" viewBox="0 0 60 29" fill="none" xmlns="http://www.w3.org/2000/svg">
<path d="M18.2276 24.5486L14.6867 28.0822H0.645496V7.00256L4.18633 3.55021H0.157104V0.0166245H14.6867L18.2276 3.55021V24.5486ZM14.1983 24.5486V3.55021H4.67472V27.5948L7.64576 24.5486H14.1983Z" fill="#00416D" fill-opacity="0.8"/>
<path d="M38.3804 3.55021H32.072V28.0822H28.0428V3.55021H21.7751V0.0166245H38.3804V3.55021Z" fill="#00416D" fill-opacity="0.8"/>
<path d="M59.9999 24.5486L56.4591 28.0822H42.4179V7.00256L45.9587 3.55021H41.9295V0.0166245H53.4474L56.9882 3.55021V8.54596L54.5055 11.0235H56.9882L59.9999 14.0291V24.5486ZM52.959 11.0235V3.55021H46.4471V14.0291L49.4181 11.0235H52.959ZM55.9707 24.5486V14.0291H46.4471V24.5486H55.9707Z" fill="#00416D" fill-opacity="0.8"/>
</svg>
