<svg width="60" height="29" viewBox="0 0 60 29" fill="none" xmlns="http://www.w3.org/2000/svg">
<path d="M18.2276 24.5486L14.6868 28.0822H0.645564V7.00256L4.1864 3.55021H0.157173V0.0166245H14.6868L18.2276 3.55021V24.5486ZM14.1984 24.5486V3.55021H4.67479V27.5948L7.64583 24.5486H14.1984Z" fill="#00416D" fill-opacity="0.8"/>
<path d="M38.3804 3.55021H32.0721V28.0822H28.0428V3.55021H21.7751V0.0166245H38.3804V3.55021Z" fill="#00416D" fill-opacity="0.8"/>
<path d="M60 24.5486L56.4592 28.0822H42.4179V7.00256L45.9588 3.55021H41.9295V0.0166245H53.4474L56.9883 3.55021V8.54596L54.5056 11.0235H56.9883L60 14.0291V24.5486ZM52.959 11.0235V3.55021H46.4472V14.0291L49.4182 11.0235H52.959ZM55.9708 24.5486V14.0291H46.4472V24.5486H55.9708Z" fill="#00416D" fill-opacity="0.8"/>
</svg>
