<svg width="287" height="287" viewBox="0 0 287 287" fill="none" xmlns="http://www.w3.org/2000/svg">
<path d="M143.5 0C109.34 -4.07354e-07 76.3003 12.186 50.3213 34.3671C24.3424 56.5482 7.12819 87.2693 1.77378 121.007C-3.58063 154.745 3.27597 189.286 21.1108 218.421C38.9457 247.556 66.5888 269.372 99.0703 279.949C131.552 290.525 166.741 289.167 198.311 276.12C229.881 263.072 255.761 239.19 271.298 208.768C286.835 178.346 291.01 143.379 283.072 110.154C275.134 76.9291 255.604 47.6256 227.993 27.5121L211.094 50.7097C233.183 66.8005 248.807 90.2433 255.157 116.823C261.508 143.403 258.168 171.377 245.738 195.714C233.309 220.052 212.605 239.158 187.349 249.596C162.093 260.034 133.941 261.12 107.956 252.659C81.9711 244.198 59.8565 226.744 45.5887 203.437C31.3208 180.129 25.8355 152.496 30.119 125.506C34.4025 98.5155 48.1739 73.9386 68.9571 56.1937C89.7403 38.4488 116.172 28.7 143.5 28.7V0Z" fill="#00416D" fill-opacity="0.3"/>
</svg>
