<svg width="190" height="296" viewBox="0 0 190 296" fill="none" xmlns="http://www.w3.org/2000/svg">
<path d="M42 14.8C42 6.62619 48.6426 -0.0766471 56.7755 0.739386C73.0789 2.3752 89.0326 6.71073 103.974 13.6006C123.406 22.561 140.664 35.6286 154.558 51.9026C168.452 68.1767 178.652 87.27 184.455 107.867C190.257 128.463 191.525 150.073 188.169 171.207C184.814 192.34 176.916 212.495 165.019 230.282C153.123 248.068 137.511 263.063 119.259 274.234C101.008 285.404 80.5515 292.484 59.2998 294.985C42.959 296.909 26.447 296.09 10.4387 292.596C2.45292 290.853 -1.78698 282.422 0.744652 274.65C3.27629 266.878 11.6236 262.729 19.6505 264.271C31.5461 266.558 43.7515 267.011 55.8398 265.588C72.8412 263.587 89.2064 257.923 103.807 248.987C118.409 240.051 130.898 228.055 140.415 213.825C149.933 199.596 156.251 183.472 158.935 166.565C161.62 149.658 160.606 132.371 155.964 115.893C151.322 99.416 143.162 84.1413 132.046 71.1221C120.931 58.1029 107.125 47.6488 91.5793 40.4805C80.5261 35.3836 68.7805 32.0341 56.7616 30.5238C48.6516 29.5047 42 22.9738 42 14.8Z" fill="#00416D" fill-opacity="0.5"/>
</svg>
