<svg width="296" height="296" viewBox="0 0 296 296" fill="none" xmlns="http://www.w3.org/2000/svg">
<path d="M148 14.8C148 6.62619 154.643 -0.0767273 162.776 0.739221C191.896 3.66066 219.619 15.1685 242.339 33.964C268.875 55.917 286.925 86.4374 293.379 120.268C299.832 154.098 294.285 189.119 277.693 219.3C261.102 249.48 234.504 272.929 202.482 285.607C170.461 298.285 135.02 299.399 102.265 288.756C69.5109 278.114 41.4934 256.381 23.0394 227.302C4.58548 198.224 -3.14948 163.619 1.16703 129.451C4.86271 100.196 17.1944 72.8297 36.4217 50.7664C41.7919 44.6042 51.223 44.9429 56.8184 50.9013C62.4137 56.8598 62.0352 66.1742 56.8208 72.4687C42.5357 89.7131 33.3655 110.744 30.5336 133.161C27.0804 160.495 33.2684 188.179 48.0316 211.442C62.7947 234.705 85.2087 252.091 111.412 260.605C137.616 269.119 165.969 268.228 191.586 258.086C217.203 247.943 238.481 229.184 251.755 205.04C265.028 180.896 269.466 152.878 264.303 125.814C259.14 98.7499 244.7 74.3336 223.471 56.7712C206.062 42.3689 184.98 33.3154 162.762 30.5236C154.652 29.5046 148 22.9738 148 14.8Z" fill="#00416D" fill-opacity="0.5"/>
</svg>
