<svg width="136" height="136" viewBox="0 0 136 136" fill="none" xmlns="http://www.w3.org/2000/svg">
<path d="M68 3.4C68 1.52223 69.5235 -0.00886704 71.3989 0.0849578C85.4638 0.788604 98.9953 5.84549 110.098 14.5985C122.093 24.0545 130.555 37.2737 134.121 52.1257C137.687 66.9778 136.148 82.5978 129.754 96.4689C123.359 110.34 112.481 121.654 98.8713 128.588C85.262 135.523 69.7144 137.673 54.7338 134.693C39.7532 131.714 26.2121 123.777 16.2924 112.162C6.37266 100.548 0.652079 85.932 0.0524249 70.6696C-0.50264 56.5422 3.35989 42.6226 11.0578 30.8303C12.0842 29.2579 14.2184 28.9253 15.7375 30.0291C17.2567 31.1328 17.5846 33.2544 16.5669 34.8325C9.76204 45.3845 6.3521 57.8017 6.84719 70.4027C7.38687 84.1388 12.5354 97.2932 21.4631 107.746C30.3909 118.199 42.5779 125.342 56.0605 128.024C69.543 130.706 83.5358 128.77 95.7842 122.53C108.033 116.289 117.823 106.106 123.578 93.622C129.334 81.138 130.718 67.08 127.509 53.7132C124.3 40.3463 116.684 28.4491 105.889 19.9386C95.9852 12.1314 83.9351 7.59142 71.3985 6.8944C69.5237 6.79015 68 5.27777 68 3.4Z" fill="#00416D" fill-opacity="0.8"/>
</svg>
