<svg width="160" height="160" viewBox="0 0 160 160" fill="none" xmlns="http://www.w3.org/2000/svg">
<path d="M80 6C80 2.68629 82.6902 -0.0234159 85.9946 0.224852C100.763 1.33446 114.978 6.52728 127.023 15.2786C140.691 25.2089 150.864 39.2112 156.085 55.2786C161.305 71.3461 161.305 88.6539 156.085 104.721C150.864 120.789 140.691 134.791 127.023 144.721C113.355 154.652 96.8943 160 80 160C63.1057 160 46.645 154.652 32.9772 144.721C19.3094 134.791 9.13611 120.789 3.91548 104.721C-0.685386 90.5613 -1.23158 75.4381 2.27689 61.0493C3.06189 57.83 6.4703 56.1087 9.62182 57.1327C12.7733 58.1567 14.4702 61.5383 13.7279 64.7678C10.9773 76.7348 11.5107 89.2641 15.3282 101.013C19.7657 114.671 28.413 126.572 40.0306 135.013C51.6482 143.454 65.6398 148 80 148C94.3602 148 108.352 143.454 119.969 135.013C131.587 126.572 140.234 114.671 144.672 101.013C149.109 87.3558 149.109 72.6442 144.672 58.9868C140.234 45.3295 131.587 33.4276 119.969 24.9868C109.975 17.7255 98.2239 13.3465 85.9925 12.2645C82.6917 11.9725 80 9.31371 80 6Z" fill="#00416D" fill-opacity="0.8"/>
</svg>
