<svg width="88" height="56" viewBox="0 0 88 56" fill="none" xmlns="http://www.w3.org/2000/svg">
<g filter="url(#filter0_d)">
<rect x="8" y="6" width="72" height="40" rx="20" fill="#00416D"/>
<path fill-rule="evenodd" clip-rule="evenodd" d="M51.4286 18.5713C51.6537 18.7964 51.8324 19.0637 51.9542 19.3578C52.0761 19.6519 52.1388 19.9672 52.1388 20.2856C52.1388 20.604 52.0761 20.9193 51.9542 21.2134C51.8324 21.5075 51.6537 21.7748 51.4286 21.9999L40.5714 32.857L36 33.9999L37.1429 29.4925L48.0046 18.5759C48.2289 18.3504 48.4955 18.1714 48.7891 18.0491C49.0827 17.9269 49.3976 17.8637 49.7156 17.8633C50.0337 17.8629 50.3487 17.9252 50.6426 18.0467C50.9366 18.1682 51.2036 18.3465 51.4286 18.5713V18.5713Z" stroke="#F9F9F9" stroke-linecap="round" stroke-linejoin="round"/>
<path d="M49.7143 21.4285L50.8571 22.5713" stroke="#F9F9F9" stroke-linecap="round" stroke-linejoin="round"/>
<line x1="41.6428" y1="34.5" x2="52.0714" y2="34.5" stroke="#F9F9F9" stroke-linecap="round"/>
</g>
<defs>
<filter id="filter0_d" x="0" y="0" width="88" height="56" filterUnits="userSpaceOnUse" color-interpolation-filters="sRGB">
<feFlood flood-opacity="0" result="BackgroundImageFix"/>
<feColorMatrix in="SourceAlpha" type="matrix" values="0 0 0 0 0 0 0 0 0 0 0 0 0 0 0 0 0 0 127 0"/>
<feOffset dy="2"/>
<feGaussianBlur stdDeviation="4"/>
<feColorMatrix type="matrix" values="0 0 0 0 0.0622222 0 0 0 0 0.0194444 0 0 0 0 0.116667 0 0 0 0.16 0"/>
<feBlend mode="normal" in2="BackgroundImageFix" result="effect1_dropShadow"/>
<feBlend mode="normal" in="SourceGraphic" in2="effect1_dropShadow" result="shape"/>
</filter>
</defs>
</svg>
