<svg width="72" height="49" viewBox="0 0 72 49" fill="none" xmlns="http://www.w3.org/2000/svg">
<path fill-rule="evenodd" clip-rule="evenodd" d="M32.3895 4C25.3733 4 19.6924 9.67511 19.6924 16.6671C19.6924 16.8247 19.6953 16.9812 19.7009 17.1366C19.8551 21.4147 17.0686 25.2469 12.9635 26.4361C8.35159 27.7721 4.99536 32.0262 4.99536 37.0381C4.99536 40.8799 8.11726 44.0013 11.9769 44.0013H27.9079C29.2784 44.0013 30.3895 42.8903 30.3895 41.5197C30.3895 40.1492 29.2784 39.0381 27.9079 39.0381H21.5762C20.9056 39.9613 19.8165 40.5611 18.5883 40.5611C16.5531 40.5611 14.8998 38.9141 14.8998 36.8781C14.8998 34.8421 16.5531 33.1951 18.5883 33.1951C19.9533 33.1951 21.1465 33.9359 21.7843 35.0381H27.9079C31.4876 35.0381 34.3895 37.94 34.3895 41.5197C34.3895 45.0994 31.4876 48.0013 27.9079 48.0013H11.9769C5.91582 48.0013 0.995361 43.0968 0.995361 37.0381C0.995361 30.1983 5.57435 24.4122 11.8505 22.594C14.2007 21.9132 15.7914 19.7189 15.7035 17.2806C15.6961 17.0773 15.6924 16.8728 15.6924 16.6671C15.6924 7.45828 23.1718 0 32.3895 0C39.8188 0 46.134 4.8486 48.2934 11.5718C49.1615 14.2745 52.0069 15.8284 54.7592 15.1C55.8223 14.8186 56.9441 14.6671 58.1094 14.6671C65.2978 14.6671 71.1322 20.4837 71.1322 27.6674C71.1322 34.8512 65.2978 40.6678 58.1094 40.6678C57.4496 40.6678 56.8042 40.6192 56.1758 40.5262C55.5059 41.2101 54.5714 41.6342 53.5386 41.6342C51.5035 41.6342 49.8501 39.9872 49.8501 37.9512C49.8501 35.9152 51.5035 34.2682 53.5386 34.2682C55.096 34.2682 56.4297 35.2326 56.9701 36.5977C57.3401 36.6437 57.7201 36.6678 58.1094 36.6678C63.0964 36.6678 67.1322 32.6344 67.1322 27.6674C67.1322 22.7005 63.0964 18.6671 58.1094 18.6671C57.2925 18.6671 56.5147 18.7731 55.7827 18.9668C50.981 20.2377 46.0065 17.532 44.485 12.795C42.8443 7.6867 38.0395 4 32.3895 4ZM18.5883 35.1951C17.6539 35.1951 16.8998 35.9505 16.8998 36.8781C16.8998 37.8056 17.6539 38.5611 18.5883 38.5611C19.5228 38.5611 20.2768 37.8056 20.2768 36.8781C20.2768 35.9505 19.5228 35.1951 18.5883 35.1951ZM51.8501 37.9512C51.8501 37.0237 52.6042 36.2682 53.5386 36.2682C54.4731 36.2682 55.2271 37.0237 55.2271 37.9512C55.2271 38.8788 54.4731 39.6342 53.5386 39.6342C52.6042 39.6342 51.8501 38.8788 51.8501 37.9512Z" fill="#00416D" fill-opacity="0.5"/>
</svg>
