<svg width="30" height="34" viewBox="0 0 30 34" fill="none" xmlns="http://www.w3.org/2000/svg">
<path fill-rule="evenodd" clip-rule="evenodd" d="M17.3572 33.5H3.21432C2.58936 33.4994 1.99017 33.2508 1.54826 32.8089C1.10634 32.367 0.857802 31.7678 0.857178 31.1429V2.85714C0.857802 2.23218 1.10634 1.633 1.54826 1.19108C1.99017 0.749166 2.58936 0.500624 3.21432 0.5H17.3572C17.9821 0.500624 18.5813 0.749166 19.0232 1.19108C19.4652 1.633 19.7137 2.23218 19.7143 2.85714V6.39286H17.3572V2.85714H3.21432V31.1429H17.3572V27.6071H19.7143V31.1429C19.7137 31.7678 19.4652 32.367 19.0232 32.8089C18.5813 33.2508 17.9821 33.4994 17.3572 33.5ZM24.6314 18.1786L20.405 22.4049L22.0715 24.0714L29.1429 17L22.0715 9.92859L20.405 11.5951L24.6314 15.8214H7.92865V18.1786H24.6314Z" fill="#F05454"/>
</svg>
