<svg width="72" height="49" viewBox="0 0 72 49" fill="none" xmlns="http://www.w3.org/2000/svg">
<path fill-rule="evenodd" clip-rule="evenodd" d="M32.3895 4C25.3733 4 19.6925 9.67511 19.6925 16.6671C19.6925 16.8247 19.6953 16.9812 19.7009 17.1366C19.8551 21.4147 17.0686 25.2469 12.9635 26.4361C8.35164 27.7721 4.99541 32.0262 4.99541 37.0381C4.99541 40.8799 8.1173 44.0013 11.977 44.0013H27.9079C29.2785 44.0013 30.3895 42.8903 30.3895 41.5197C30.3895 40.1492 29.2785 39.0381 27.9079 39.0381H21.5763C20.9057 39.9613 19.8165 40.5611 18.5884 40.5611C16.5532 40.5611 14.8999 38.9141 14.8999 36.8781C14.8999 34.8421 16.5532 33.1951 18.5884 33.1951C19.9533 33.1951 21.1465 33.9359 21.7844 35.0381H27.9079C31.4876 35.0381 34.3895 37.94 34.3895 41.5197C34.3895 45.0994 31.4876 48.0013 27.9079 48.0013H11.977C5.91586 48.0013 0.995407 43.0968 0.995407 37.0381C0.995407 30.1983 5.5744 24.4122 11.8505 22.594C14.2007 21.9132 15.7914 19.7189 15.7035 17.2806C15.6962 17.0773 15.6925 16.8728 15.6925 16.6671C15.6925 7.45828 23.1719 0 32.3895 0C39.8188 0 46.134 4.8486 48.2935 11.5718C49.1616 14.2745 52.007 15.8284 54.7592 15.1C55.8224 14.8186 56.9441 14.6671 58.1094 14.6671C65.2979 14.6671 71.1322 20.4837 71.1322 27.6674C71.1322 34.8512 65.2979 40.6678 58.1094 40.6678C57.4497 40.6678 56.8043 40.6192 56.1759 40.5262C55.5059 41.2101 54.5715 41.6342 53.5387 41.6342C51.5035 41.6342 49.8502 39.9872 49.8502 37.9512C49.8502 35.9152 51.5035 34.2682 53.5387 34.2682C55.096 34.2682 56.4297 35.2326 56.9702 36.5977C57.3402 36.6437 57.7201 36.6678 58.1094 36.6678C63.0964 36.6678 67.1322 32.6344 67.1322 27.6674C67.1322 22.7005 63.0964 18.6671 58.1094 18.6671C57.2926 18.6671 56.5148 18.7731 55.7827 18.9668C50.9811 20.2377 46.0066 17.532 44.4851 12.795C42.8443 7.6867 38.0395 4 32.3895 4ZM18.5884 35.1951C17.6539 35.1951 16.8999 35.9505 16.8999 36.8781C16.8999 37.8056 17.6539 38.5611 18.5884 38.5611C19.5228 38.5611 20.2769 37.8056 20.2769 36.8781C20.2769 35.9505 19.5228 35.1951 18.5884 35.1951ZM51.8502 37.9512C51.8502 37.0237 52.6042 36.2682 53.5387 36.2682C54.4731 36.2682 55.2272 37.0237 55.2272 37.9512C55.2272 38.8788 54.4731 39.6342 53.5387 39.6342C52.6042 39.6342 51.8502 38.8788 51.8502 37.9512Z" fill="#00416D" fill-opacity="0.5"/>
</svg>
