<svg width="30" height="34" viewBox="0 0 30 34" fill="none" xmlns="http://www.w3.org/2000/svg">
<path fill-rule="evenodd" clip-rule="evenodd" d="M17.3571 33.5H3.2142C2.58924 33.4994 1.99005 33.2508 1.54814 32.8089C1.10622 32.367 0.85768 31.7678 0.857056 31.1429V2.85714C0.85768 2.23218 1.10622 1.633 1.54814 1.19108C1.99005 0.749166 2.58924 0.500624 3.2142 0.5H17.3571C17.982 0.500624 18.5812 0.749166 19.0231 1.19108C19.465 1.633 19.7136 2.23218 19.7142 2.85714V6.39286H17.3571V2.85714H3.2142V31.1429H17.3571V27.6071H19.7142V31.1429C19.7136 31.7678 19.465 32.367 19.0231 32.8089C18.5812 33.2508 17.982 33.4994 17.3571 33.5ZM24.6312 18.1786L20.4049 22.4049L22.0714 24.0714L29.1428 17L22.0714 9.92859L20.4049 11.5951L24.6312 15.8214H7.92853V18.1786H24.6312Z" fill="#F05454"/>
</svg>
