<svg width="28" height="34" viewBox="0 0 28 34" fill="none" xmlns="http://www.w3.org/2000/svg">
<path d="M14.1809 33.5C16.0425 33.5 17.5655 31.9769 17.5655 30.1154H10.7963C10.7963 31.013 11.1529 31.8739 11.7876 32.5087C12.4224 33.1434 13.2833 33.5 14.1809 33.5ZM24.3348 23.3461V14.8846C24.3348 9.68922 21.5594 5.33999 16.7194 4.18922V3.03845C16.7194 1.63383 15.5855 0.499989 14.1809 0.499989C12.7763 0.499989 11.6425 1.63383 11.6425 3.03845V4.18922C6.78553 5.33999 4.02707 9.6723 4.02707 14.8846V23.3461L0.642456 26.7308V28.4231H27.7194V26.7308L24.3348 23.3461Z" fill="#00416D" fill-opacity="0.8"/>
</svg>
