<svg width="28" height="34" viewBox="0 0 28 34" fill="none" xmlns="http://www.w3.org/2000/svg">
<path d="M14.181 33.5C16.0426 33.5 17.5656 31.9769 17.5656 30.1154H10.7964C10.7964 31.013 11.153 31.8739 11.7878 32.5087C12.4225 33.1434 13.2834 33.5 14.181 33.5ZM24.3349 23.3461V14.8846C24.3349 9.68922 21.5595 5.33999 16.7195 4.18922V3.03845C16.7195 1.63383 15.5856 0.499989 14.181 0.499989C12.7764 0.499989 11.6426 1.63383 11.6426 3.03845V4.18922C6.78565 5.33999 4.02719 9.6723 4.02719 14.8846V23.3461L0.642578 26.7308V28.4231H27.7195V26.7308L24.3349 23.3461Z" fill="#00416D" fill-opacity="0.8"/>
</svg>
