<svg width="20" height="20" viewBox="0 0 20 20" fill="none" xmlns="http://www.w3.org/2000/svg">
<path d="M19.2846 17.7704L15.6591 14.1556C16.8288 12.6653 17.4635 10.8251 17.4612 8.93058C17.4612 7.24339 16.9609 5.59409 16.0235 4.19124C15.0862 2.7884 13.7539 1.69501 12.1951 1.04935C10.6364 0.40369 8.92114 0.234756 7.26637 0.563911C5.6116 0.893065 4.09159 1.70552 2.89857 2.89855C1.70554 4.09157 0.893084 5.61158 0.56393 7.26635C0.234775 8.92112 0.403709 10.6363 1.04937 12.1951C1.69503 13.7539 2.78841 15.0862 4.19126 16.0235C5.59411 16.9609 7.24341 17.4612 8.9306 17.4612C10.8251 17.4635 12.6653 16.8288 14.1556 15.6591L17.7704 19.2846C17.8695 19.3845 17.9875 19.4639 18.1174 19.518C18.2474 19.5721 18.3867 19.6 18.5275 19.6C18.6683 19.6 18.8076 19.5721 18.9376 19.518C19.0675 19.4639 19.1855 19.3845 19.2846 19.2846C19.3845 19.1854 19.4639 19.0675 19.518 18.9376C19.5721 18.8076 19.6 18.6683 19.6 18.5275C19.6 18.3867 19.5721 18.2473 19.518 18.1174C19.4639 17.9875 19.3845 17.8695 19.2846 17.7704ZM2.53266 8.93058C2.53266 7.66519 2.9079 6.42821 3.61091 5.37608C4.31392 4.32394 5.31315 3.5039 6.48222 3.01966C7.65129 2.53541 8.9377 2.40871 10.1788 2.65558C11.4199 2.90244 12.5599 3.51179 13.4546 4.40656C14.3494 5.30132 14.9587 6.44133 15.2056 7.68241C15.4525 8.92348 15.3258 10.2099 14.8415 11.379C14.3573 12.548 13.5372 13.5473 12.4851 14.2503C11.433 14.9533 10.196 15.3285 8.9306 15.3285C7.23376 15.3285 5.60642 14.6545 4.40658 13.4546C3.20673 12.2548 2.53266 10.6274 2.53266 8.93058Z" fill="#222831" fill-opacity="0.8"/>
</svg>
